<?xml version="1.0" encoding="utf-8"?>
<!-- Generator: Adobe Illustrator 24.0.1, SVG Export Plug-In . SVG Version: 6.00 Build 0)  -->
<svg version="1.1" id="Layer_1" xmlns="http://www.w3.org/2000/svg" xmlns:xlink="http://www.w3.org/1999/xlink" x="0px" y="0px"
	 viewBox="0 0 512 512" style="enable-background:new 0 0 512 512;" xml:space="preserve">
<style type="text/css">
	.st0{fill:#DDDDDD;}
	.st1{fill:#272727;}
	.st2{opacity:0.43;}
</style>
<rect class="st0" width="512" height="512"/>
<g>
	<path class="st1" d="M356.5,163.3c-5.7,17.2-13.7,29.6-24,37.2c-9.2,6.8-25.2,13-48,18.5c-24.8,6.4-45.2,14.6-61.2,24.6
		c-18.4,12.1-27.5,24.9-27.5,38.4c0,5.3,1.5,10.7,4.4,16.4c11.1,19.9,26.7,43.1,46.6,69.4c17.6,23.2,27,36.9,28.4,41
		c0.4,1.2,0.6,2.3,0.6,3.5c0,5.5-4,8.5-12,9.1c-6.1,0-19.7-9.9-41-29.6c-24.4-22.9-41-45-49.8-66.5c-3.1-8-4.7-17.4-4.7-28.1
		c0-22.5,6.2-44.1,18.5-65c15.2-25.2,37.1-43.9,65.6-56.3c2.3-15.6,7.7-31.4,16.1-47.5c8.4-16.8,16.4-25.2,24-25.2
		c45.1-1.6,67.7,11.6,67.7,39.6C360,148.9,358.8,155.7,356.5,163.3z"/>
</g>
<g id="Layer_1_1_" class="st2">
</g>
</svg>
