<?xml version="1.0" encoding="utf-8"?>
<!-- Generator: Adobe Illustrator 24.0.1, SVG Export Plug-In . SVG Version: 6.00 Build 0)  -->
<svg version="1.1" xmlns="http://www.w3.org/2000/svg" xmlns:xlink="http://www.w3.org/1999/xlink" x="0px" y="0px"
	 viewBox="0 0 512 512" style="enable-background:new 0 0 512 512;" xml:space="preserve">
<style type="text/css">
	.st0{fill:#272727;}
	.st1{fill:#12A086;}
	.st2{fill:#DDDDDD;}
	.st3{display:none;fill:#F1F1F2;}
</style>
<g id="Layer_2">
	<rect class="st0" width="511.843" height="512"/>
</g>
<g id="Layer_1">
	<g>
		<path class="st1" d="M16.859,447.317c0-0.469-12.109,11.932-16.702,16.651v-33.273C5.685,436.358,16.859,447.753,16.859,447.317z"
			/>
		<polygon class="st2" points="176.35,330.847 180.767,331.39 181.31,335.807 187.086,382.81 256.157,451.882 256.157,457.989 
			182.982,384.814 176.892,335.264 127.343,329.175 54.168,256 60.275,256 129.347,325.071 		"/>
		<polygon class="st2" points="79.231,432.926 128.78,439.015 201.765,512 195.658,512 126.777,443.119 79.774,437.343 
			75.357,436.8 74.814,432.383 69.037,385.38 0.157,316.499 0.157,310.392 73.141,383.376 		"/>
		<polygon class="st1" points="143.869,366.618 145.426,366.731 145.539,368.288 146.993,388.243 256.157,497.407 256.157,512 
			241.183,512 132.21,403.026 112.255,401.573 110.698,401.459 110.584,399.902 109.131,379.947 0.157,270.974 0.157,256 14.75,256 
			123.914,365.164 		"/>
		<polygon class="st2" points="23.542,494.741 40.801,512 0.157,512 0.157,471.356 17.415,488.615 		"/>
		<path class="st1" d="M64.84,495.298c-0.435,0,10.959,11.175,16.622,16.702H48.188C52.908,507.408,65.309,495.298,64.84,495.298z"
			/>
		<path class="st1" d="M256.157,396.985c-2.914-6.76-7.994-16.449-15.831-24.764c0,0,13.397-25.323,11.273-61.757
			c0,0-6.535,16.011-28.592,23.2c-22.056,7.189-26.63-12.58-16.664-16.828c9.966-4.248,7.841,9.966,20.749,5.718
			c12.907-4.248,24.672-17.054,24.019-31.594c0,0-5.046,15.942-18.464,19.34c-13.699,3.471-14.527-10.758-6.642-14.147
			c6.662-2.864,6.959,7.827,13.004,5.05c5.21-2.394,13.51-21.61,16.275-44.329c-22.718,2.766-41.935,11.065-44.329,16.276
			c-2.777,6.045,7.913,6.342,5.05,13.003c-3.389,7.885-17.618,7.058-14.147-6.642c3.399-13.417,19.34-18.464,19.34-18.464
			c-14.54-0.653-27.346,11.112-31.594,24.019c-4.248,12.907,9.966,10.783,5.718,20.749c-4.248,9.967-24.017,5.392-16.828-16.664
			c7.189-22.057,23.201-28.592,23.201-28.592c-36.435-2.124-61.758,11.273-61.758,11.273c-8.315-7.837-18.004-12.917-24.764-15.831
			h140.985V396.985z"/>
		<path class="st2" d="M229.836,271.71c6.761-5.794,13.6-8.617,18.246-9.978c1.213-0.355,2.259-0.606,3.131-0.788
			c-0.182,0.872-0.433,1.918-0.788,3.131c-1.361,4.646-4.184,11.486-9.978,18.246c-5.094,5.944-12.933,9.767-19.226,12.07
			c-1.89,0.691-3.651,1.258-5.142,1.687c0.43-1.491,0.996-3.252,1.687-5.142C220.069,284.642,223.892,276.804,229.836,271.71z"/>
		<path class="st1" d="M495.141,447.317c0-0.469,12.109,11.932,16.702,16.651v-33.273
			C506.315,436.358,495.141,447.753,495.141,447.317z"/>
		<polygon class="st2" points="335.65,330.847 331.233,331.39 330.69,335.807 324.914,382.81 255.843,451.882 255.843,457.989 
			329.018,384.814 335.108,335.264 384.657,329.175 457.832,256 451.725,256 382.653,325.071 		"/>
		<polygon class="st2" points="432.769,432.926 383.22,439.015 310.235,512 316.342,512 385.223,443.119 432.226,437.343 
			436.643,436.8 437.186,432.383 442.963,385.38 511.843,316.499 511.843,310.392 438.859,383.376 		"/>
		<polygon class="st1" points="368.131,366.618 366.574,366.731 366.461,368.288 365.007,388.243 255.843,497.407 255.843,512 
			270.817,512 379.79,403.026 399.745,401.573 401.302,401.459 401.416,399.902 402.869,379.947 511.843,270.974 511.843,256 
			497.25,256 388.086,365.164 		"/>
		<polygon class="st2" points="488.458,494.741 471.199,512 511.843,512 511.843,471.356 494.585,488.615 		"/>
		<path class="st1" d="M447.16,495.298c0.435,0-10.959,11.175-16.622,16.702h33.273C459.092,507.408,446.691,495.298,447.16,495.298
			z"/>
		<path class="st1" d="M255.843,396.985c2.914-6.76,7.994-16.449,15.831-24.764c0,0-13.397-25.323-11.273-61.757
			c0,0,6.535,16.011,28.592,23.2c22.056,7.189,26.63-12.58,16.664-16.828c-9.966-4.248-7.841,9.966-20.749,5.718
			c-12.907-4.248-24.672-17.054-24.019-31.594c0,0,5.046,15.942,18.464,19.34c13.699,3.471,14.527-10.758,6.642-14.147
			c-6.662-2.864-6.959,7.827-13.004,5.05c-5.21-2.394-13.51-21.61-16.275-44.329c22.718,2.766,41.935,11.065,44.329,16.276
			c2.777,6.045-7.913,6.342-5.05,13.003c3.389,7.885,17.618,7.058,14.147-6.642c-3.399-13.417-19.34-18.464-19.34-18.464
			c14.54-0.653,27.346,11.112,31.594,24.019c4.248,12.907-9.966,10.783-5.718,20.749c4.248,9.967,24.017,5.392,16.828-16.664
			c-7.189-22.057-23.201-28.592-23.201-28.592c36.435-2.124,61.758,11.273,61.758,11.273c8.315-7.837,18.004-12.917,24.764-15.831
			H255.843V396.985z"/>
		<path class="st2" d="M282.164,271.71c-6.76-5.794-13.6-8.617-18.246-9.978c-1.213-0.355-2.259-0.606-3.131-0.788
			c0.182,0.872,0.433,1.918,0.788,3.131c1.361,4.646,4.184,11.486,9.978,18.246c5.094,5.944,12.933,9.767,19.226,12.07
			c1.89,0.691,3.651,1.258,5.142,1.687c-0.43-1.491-0.996-3.252-1.687-5.142C291.931,284.642,288.108,276.804,282.164,271.71z"/>
		<g>
			<g>
				<polygon class="st3" points="176.735,176.735 182.825,127.186 256,54.011 256,14.593 146.836,123.757 145.382,143.712 
					145.269,145.269 143.712,145.382 123.757,146.836 14.593,256 54.011,256 127.186,182.824 				"/>
				<path class="st3" d="M74.657,79.617L75.2,75.2l4.417-0.543l47.003-5.776L195.5,0H81.305
					c-5.663,5.527-17.057,16.702-16.622,16.702c0.469,0-11.932-12.11-16.651-16.702h-7.388L23.385,17.259l-6.126,6.126L0,40.644
					v7.388c4.593,4.719,16.702,17.12,16.702,16.651c0-0.435-11.174,10.959-16.702,16.622V195.5l68.88-68.881L74.657,79.617z"/>
				<polygon class="st3" points="110.427,112.098 110.541,110.541 112.098,110.427 132.053,108.974 241.026,0 201.608,0 
					128.623,72.984 79.074,79.074 72.984,128.623 0,201.608 0,241.026 108.974,132.052 				"/>
				<path class="st3" d="M201.537,251.442c0,0-16.012-6.535-23.201-28.592c-7.189-22.056,12.58-26.63,16.828-16.664
					c4.248,9.966-9.966,7.842-5.718,20.749c4.248,12.907,17.054,24.672,31.594,24.019c0,0-15.942-5.046-19.34-18.464
					c-3.471-13.699,10.758-14.527,14.147-6.642c2.864,6.662-7.827,6.959-5.05,13.003c2.394,5.21,21.61,13.509,44.329,16.276
					c-2.766-22.719-11.065-41.935-16.275-44.329c-6.045-2.777-6.342,7.913-13.004,5.05c-7.885-3.389-7.058-17.618,6.642-14.147
					c13.418,3.399,18.464,19.34,18.464,19.34c0.653-14.54-11.112-27.346-24.019-31.594c-12.907-4.248-10.783,9.966-20.749,5.718
					c-9.967-4.248-5.392-24.017,16.664-16.828c22.057,7.189,28.592,23.2,28.592,23.2c2.124-36.434-11.273-61.758-11.273-61.758
					c7.836-8.315,12.917-18.004,15.831-24.764V60.118l-69.071,69.072l-5.776,47.003l-0.543,4.417l-4.417,0.543l-47.003,5.776
					L60.118,256h54.897c6.76-2.914,16.449-7.994,24.764-15.831C139.779,240.169,165.103,253.566,201.537,251.442z M221.064,217.609
					c6.293,2.303,14.132,6.126,19.226,12.07c5.794,6.76,8.617,13.6,9.978,18.246c0.356,1.213,0.606,2.259,0.788,3.131
					c-0.872-0.182-1.918-0.433-3.131-0.788c-4.646-1.361-11.486-4.184-18.246-9.978c-5.944-5.094-9.768-12.933-12.07-19.226
					c-0.691-1.89-1.257-3.651-1.687-5.142C217.413,216.351,219.174,216.918,221.064,217.609z"/>
				<path class="st1" d="M16.702,64.682c0,0.469-12.109-11.932-16.702-16.651v33.273C5.528,75.642,16.702,64.247,16.702,64.682z"/>
				<polygon class="st2" points="176.193,181.152 180.609,180.609 181.153,176.193 186.929,129.19 256,60.118 256,54.011 
					182.825,127.186 176.735,176.735 127.186,182.824 54.011,256 60.118,256 129.19,186.929 				"/>
				<polygon class="st2" points="79.074,79.074 128.623,72.984 201.608,0 195.5,0 126.62,68.88 79.617,74.657 75.2,75.2 
					74.657,79.617 68.88,126.62 0,195.5 0,201.608 72.984,128.623 				"/>
				<polygon class="st1" points="143.712,145.382 145.269,145.269 145.382,143.712 146.836,123.757 256,14.593 256,0 241.026,0 
					132.053,108.974 112.098,110.427 110.541,110.541 110.427,112.098 108.974,132.052 0,241.026 0,256 14.593,256 123.757,146.836 
									"/>
				<polygon class="st2" points="23.385,17.259 40.644,0 0,0 0,40.644 17.258,23.385 				"/>
				<path class="st1" d="M64.682,16.702C64.247,16.702,75.642,5.527,81.305,0H48.031C52.751,4.592,65.152,16.702,64.682,16.702z"/>
				<path class="st1" d="M256,115.015c-2.914,6.76-7.994,16.449-15.831,24.764c0,0,13.397,25.323,11.273,61.758
					c0,0-6.535-16.011-28.592-23.2c-22.056-7.189-26.63,12.58-16.664,16.828c9.966,4.248,7.841-9.966,20.749-5.718
					c12.907,4.248,24.672,17.054,24.019,31.594c0,0-5.046-15.942-18.464-19.34c-13.699-3.471-14.527,10.758-6.642,14.147
					c6.662,2.864,6.959-7.827,13.004-5.05c5.21,2.394,13.51,21.61,16.275,44.329c-22.718-2.766-41.935-11.065-44.329-16.276
					c-2.777-6.045,7.913-6.342,5.05-13.003c-3.389-7.885-17.618-7.058-14.147,6.642c3.399,13.417,19.34,18.464,19.34,18.464
					c-14.54,0.653-27.346-11.112-31.594-24.019c-4.248-12.907,9.966-10.783,5.718-20.749c-4.248-9.967-24.017-5.392-16.828,16.664
					c7.189,22.057,23.201,28.592,23.201,28.592c-36.435,2.124-61.758-11.273-61.758-11.273
					c-8.315,7.837-18.004,12.917-24.764,15.831H256V115.015z"/>
				<path class="st2" d="M229.679,240.29c6.76,5.794,13.6,8.617,18.246,9.978c1.213,0.355,2.259,0.606,3.131,0.788
					c-0.182-0.872-0.433-1.918-0.788-3.131c-1.361-4.646-4.184-11.486-9.978-18.246c-5.094-5.944-12.933-9.768-19.226-12.07
					c-1.89-0.691-3.651-1.258-5.142-1.687c0.43,1.491,0.996,3.252,1.687,5.142C219.912,227.357,223.735,235.196,229.679,240.29z"/>
			</g>
			<g>
				<polygon class="st3" points="334.951,176.735 328.861,127.186 255.686,54.011 255.686,14.593 364.85,123.757 366.304,143.712 
					366.417,145.269 367.974,145.382 387.929,146.836 497.093,256 457.675,256 384.5,182.824 				"/>
				<path class="st3" d="M437.029,79.617l-0.543-4.417l-4.417-0.543l-47.003-5.776L316.185,0l114.196,0
					c5.663,5.527,17.057,16.702,16.622,16.702c-0.469,0,11.932-12.11,16.651-16.702l7.388,0l17.259,17.259l6.126,6.126
					l17.258,17.259v7.388c-4.593,4.719-16.702,17.12-16.702,16.651c0-0.435,11.174,10.959,16.702,16.622V195.5l-68.88-68.881
					L437.029,79.617z"/>
				<polygon class="st3" points="401.259,112.098 401.145,110.541 399.588,110.427 379.633,108.974 270.66,0 310.078,0 
					383.063,72.984 432.612,79.074 438.702,128.623 511.686,201.608 511.686,241.026 402.712,132.052 				"/>
				<path class="st3" d="M371.906,240.169c8.315,7.837,18.004,12.917,24.764,15.831h54.897l-69.072-69.071l-47.003-5.776
					l-4.417-0.543l-0.543-4.417l-5.776-47.003l-69.071-69.072v54.897c2.914,6.76,7.994,16.449,15.831,24.764
					c0,0-13.397,25.323-11.273,61.758c0,0,6.535-16.011,28.592-23.2c22.056-7.189,26.63,12.58,16.664,16.828
					c-9.966,4.248-7.841-9.966-20.749-5.718c-12.907,4.248-24.672,17.054-24.019,31.594c0,0,5.046-15.942,18.464-19.34
					c13.699-3.471,14.527,10.758,6.642,14.147c-6.662,2.864-6.959-7.827-13.004-5.05c-5.21,2.394-13.51,21.61-16.275,44.329
					c22.718-2.766,41.935-11.065,44.329-16.276c2.777-6.045-7.913-6.342-5.05-13.003c3.389-7.885,17.618-7.058,14.147,6.642
					c-3.399,13.417-19.34,18.464-19.34,18.464c14.54,0.653,27.346-11.112,31.594-24.019c4.248-12.907-9.966-10.783-5.718-20.749
					c4.248-9.967,24.017-5.392,16.828,16.664c-7.189,22.057-23.201,28.592-23.201,28.592
					C346.583,253.566,371.906,240.169,371.906,240.169z M295.764,215.922c-0.43,1.491-0.996,3.252-1.687,5.142
					c-2.303,6.294-6.126,14.132-12.07,19.226c-6.76,5.794-13.6,8.617-18.246,9.978c-1.213,0.355-2.259,0.606-3.131,0.788
					c0.182-0.872,0.433-1.918,0.788-3.131c1.361-4.646,4.184-11.486,9.978-18.246c5.094-5.944,12.933-9.768,19.226-12.07
					C292.512,216.918,294.273,216.351,295.764,215.922z"/>
				<path class="st1" d="M494.984,64.682c0,0.469,12.109-11.932,16.702-16.651v33.273C506.158,75.642,494.984,64.247,494.984,64.682
					z"/>
				<polygon class="st2" points="335.493,181.152 331.076,180.609 330.533,176.193 324.757,129.19 255.686,60.118 255.686,54.011 
					328.861,127.186 334.951,176.735 384.5,182.824 457.675,256 451.568,256 382.496,186.929 				"/>
				<polygon class="st2" points="432.612,79.074 383.063,72.984 310.078,0 316.185,0 385.066,68.88 432.069,74.657 436.486,75.2 
					437.029,79.617 442.806,126.62 511.686,195.5 511.686,201.608 438.702,128.623 				"/>
				<polygon class="st1" points="367.974,145.382 366.417,145.269 366.304,143.712 364.85,123.757 255.686,14.593 255.686,0 
					270.66,0 379.633,108.974 399.588,110.427 401.145,110.541 401.259,112.098 402.712,132.052 511.686,241.026 511.686,256 
					497.093,256 387.929,146.836 				"/>
				<polygon class="st2" points="488.301,17.259 471.042,0 511.686,0 511.686,40.644 494.427,23.385 				"/>
				<path class="st1" d="M447.003,16.702c0.435,0-10.959-11.175-16.622-16.702l33.273,0
					C458.935,4.592,446.534,16.702,447.003,16.702z"/>
				<path class="st1" d="M255.686,115.015c2.914,6.76,7.994,16.449,15.831,24.764c0,0-13.397,25.323-11.273,61.758
					c0,0,6.535-16.011,28.592-23.2c22.056-7.189,26.63,12.58,16.664,16.828c-9.966,4.248-7.841-9.966-20.749-5.718
					c-12.907,4.248-24.672,17.054-24.019,31.594c0,0,5.046-15.942,18.464-19.34c13.699-3.471,14.527,10.758,6.642,14.147
					c-6.662,2.864-6.959-7.827-13.004-5.05c-5.21,2.394-13.51,21.61-16.275,44.329c22.718-2.766,41.935-11.065,44.329-16.276
					c2.777-6.045-7.913-6.342-5.05-13.003c3.389-7.885,17.618-7.058,14.147,6.642c-3.399,13.417-19.34,18.464-19.34,18.464
					c14.54,0.653,27.346-11.112,31.594-24.019c4.248-12.907-9.966-10.783-5.718-20.749c4.248-9.967,24.017-5.392,16.828,16.664
					c-7.189,22.057-23.201,28.592-23.201,28.592c36.435,2.124,61.758-11.273,61.758-11.273c8.315,7.837,18.004,12.917,24.764,15.831
					H255.686V115.015z"/>
				<path class="st2" d="M282.007,240.29c-6.76,5.794-13.6,8.617-18.246,9.978c-1.213,0.355-2.259,0.606-3.131,0.788
					c0.182-0.872,0.433-1.918,0.788-3.131c1.361-4.646,4.184-11.486,9.978-18.246c5.094-5.944,12.933-9.768,19.226-12.07
					c1.89-0.691,3.651-1.258,5.142-1.687c-0.43,1.491-0.996,3.252-1.687,5.142C291.774,227.357,287.951,235.196,282.007,240.29z"/>
			</g>
		</g>
	</g>
</g>
</svg>
